<svg xmlns="http://www.w3.org/2000/svg" width="315" height="315" viewBox="0 0 35 35"><rect fill="#FFFFFF" x="0" y="0" width="35" height="35" /><path fill="#000000" d="M5 5h7v7h-7zM13 5h1v2h1v1h1v4h1v1h-1v1h-1v-3h-1v1h-1v-2h1v-1h-1zM18 5h4v2h-1v-1h-2v1h-1v3h-1v-3h-1v-1h2zM23 5h7v7h-7zM6 6v5h5v-5zM24 6v5h5v-5zM7 7h3v3h-3zM19 7h2v1h-2zM25 7h3v3h-3zM21 8h1v4h-1v-2h-2v-1h2zM17 11h1v1h-1zM19 11h1v1h-1zM18 12h1v2h1v-1h1v1h1v1h-1v1h-1v-1h-2v-1h-1v-1h1zM5 13h2v2h1v1h-1v1h-1v2h-1v-4h1v-1h-1zM9 13h3v1h-3zM24 13h1v1h-1zM26 13h4v1h-2v2h1v1h-1v1h-2v-1h1v-3h-1zM8 14h1v1h-1zM12 14h2v1h2v1h-1v1h-1v-1h-1v-1h-1zM25 14h1v2h-2v2h-1v-3h2zM11 15h1v1h-1zM8 16h3v1h-1v1h1v1h-1v1h-1v-2h-1zM12 16h1v2h1v2h-3v-1h1v-1h-1v-1h1zM17 16h1v1h-1zM19 16h1v2h-2v-1h1zM21 16h1v3h-1v2h-1v-1h-1v2h1v1h-2v-1h-1v-1h1v-1h-1v1h-1v-1h-1v-2h1v1h1v-1h1v1h2v-1h1zM16 17h1v1h-1zM25 18h1v1h-1zM7 19h1v1h-1zM22 19h1v2h3v2h2v1h2v3h-1v2h1v1h-8v-2h-1v-1h-1v-1h1v-5h1zM8 20h1v1h-1zM10 20h1v1h-1zM14 20h1v1h-1zM26 20h3v1h1v2h-2v-1h-1v-1h-1zM5 21h3v1h-3zM11 21h1v1h-1zM13 22h1v1h-1zM15 22h1v1h-1zM22 22v3h3v-3zM5 23h7v7h-7zM23 23h1v1h-1zM6 24v5h5v-5zM13 24h1v1h1v-1h1v1h1v1h-2v2h-1v-2h-1zM17 24h1v1h-1zM19 24h1v2h-2v-1h1zM26 24v2h-1v1h-1v1h-1v1h1v-1h2v1h1v-5zM7 25h3v3h-3zM28 25v1h1v-1zM17 26h1v1h2v1h-1v2h-2v-1h1v-1h-1v1h-1v1h-3v-2h1v1h1v-1h1v-1h1zM20 29h1v1h-1z"/></svg>